<svg width="20" height="23" viewBox="0 0 20 23" fill="none" xmlns="http://www.w3.org/2000/svg">
<path fill-rule="evenodd" clip-rule="evenodd" d="M4 5.21739H12.4493C13.5092 5.21893 14.5253 5.63187 15.2743 6.36554C16.0232 7.09921 16.4439 8.09363 16.4439 9.13043V20C17.387 20 18.2916 19.6335 18.9584 18.9812C19.6253 18.3289 20 17.4442 20 16.5217V5.34261C20 3.59768 18.6665 2.08348 16.8422 1.93391C16.5764 1.9128 16.3105 1.89347 16.0445 1.87594C15.7444 1.31048 15.2913 0.836482 14.7347 0.505671C14.178 0.174859 13.5392 -5.95168e-05 12.8878 1.51908e-08H11.1098C10.4585 -5.95168e-05 9.8196 0.174859 9.26295 0.505671C8.7063 0.836482 8.25323 1.31048 7.95318 1.87594C7.68647 1.89333 7.41977 1.91304 7.15543 1.93391C5.37502 2.08116 4.06164 3.52696 4 5.21739ZM11.1098 1.73913C10.6382 1.73913 10.186 1.92236 9.85253 2.24851C9.51908 2.57466 9.33175 3.01701 9.33175 3.47826H14.6659C14.6659 3.01701 14.4785 2.57466 14.1451 2.24851C13.8117 1.92236 13.3594 1.73913 12.8878 1.73913H11.1098Z" fill="white"/>
<path fill-rule="evenodd" clip-rule="evenodd" d="M0 8.125C0 6.95087 0.995556 6 2.22222 6H13.7778C15.0056 6 16 6.952 16 8.125V20.875C16 22.048 15.0044 23 13.7778 23H2.22222C1.63285 23 1.06762 22.7761 0.650874 22.3776C0.234126 21.9791 0 21.4386 0 20.875V8.125ZM3.55556 11.1C3.55556 10.8746 3.64921 10.6584 3.81591 10.499C3.9826 10.3396 4.2087 10.25 4.44444 10.25H4.45393C4.68967 10.25 4.91577 10.3396 5.08247 10.499C5.24916 10.6584 5.34281 10.8746 5.34281 11.1V11.1091C5.34281 11.3345 5.24916 11.5507 5.08247 11.7101C4.91577 11.8695 4.68967 11.9591 4.45393 11.9591H4.44444C4.2087 11.9591 3.9826 11.8695 3.81591 11.7101C3.64921 11.5507 3.55556 11.3345 3.55556 11.1091V11.1ZM6.22222 11.1C6.22222 10.8746 6.31587 10.6584 6.48257 10.499C6.64927 10.3396 6.87536 10.25 7.11111 10.25H11.5556C11.7913 10.25 12.0174 10.3396 12.1841 10.499C12.3508 10.6584 12.4444 10.8746 12.4444 11.1C12.4444 11.3254 12.3508 11.5416 12.1841 11.701C12.0174 11.8604 11.7913 11.95 11.5556 11.95H7.11111C6.87536 11.95 6.64927 11.8604 6.48257 11.701C6.31587 11.5416 6.22222 11.3254 6.22222 11.1ZM3.55556 14.5C3.55556 14.2746 3.64921 14.0584 3.81591 13.899C3.9826 13.7396 4.2087 13.65 4.44444 13.65H4.45393C4.68967 13.65 4.91577 13.7396 5.08247 13.899C5.24916 14.0584 5.34281 14.2746 5.34281 14.5V14.5091C5.34281 14.7345 5.24916 14.9507 5.08247 15.1101C4.91577 15.2695 4.68967 15.3591 4.45393 15.3591H4.44444C4.2087 15.3591 3.9826 15.2695 3.81591 15.1101C3.64921 14.9507 3.55556 14.7345 3.55556 14.5091V14.5ZM6.22222 14.5C6.22222 14.2746 6.31587 14.0584 6.48257 13.899C6.64927 13.7396 6.87536 13.65 7.11111 13.65H11.5556C11.7913 13.65 12.0174 13.7396 12.1841 13.899C12.3508 14.0584 12.4444 14.2746 12.4444 14.5C12.4444 14.7254 12.3508 14.9416 12.1841 15.101C12.0174 15.2604 11.7913 15.35 11.5556 15.35H7.11111C6.87536 15.35 6.64927 15.2604 6.48257 15.101C6.31587 14.9416 6.22222 14.7254 6.22222 14.5ZM3.55556 17.9C3.55556 17.6746 3.64921 17.4584 3.81591 17.299C3.9826 17.1396 4.2087 17.05 4.44444 17.05H4.45393C4.68967 17.05 4.91577 17.1396 5.08247 17.299C5.24916 17.4584 5.34281 17.6746 5.34281 17.9V17.9091C5.34281 18.1345 5.24916 18.3507 5.08247 18.5101C4.91577 18.6695 4.68967 18.7591 4.45393 18.7591H4.44444C4.2087 18.7591 3.9826 18.6695 3.81591 18.5101C3.64921 18.3507 3.55556 18.1345 3.55556 17.9091V17.9ZM6.22222 17.9C6.22222 17.6746 6.31587 17.4584 6.48257 17.299C6.64927 17.1396 6.87536 17.05 7.11111 17.05H11.5556C11.7913 17.05 12.0174 17.1396 12.1841 17.299C12.3508 17.4584 12.4444 17.6746 12.4444 17.9C12.4444 18.1254 12.3508 18.3416 12.1841 18.501C12.0174 18.6604 11.7913 18.75 11.5556 18.75H7.11111C6.87536 18.75 6.64927 18.6604 6.48257 18.501C6.31587 18.3416 6.22222 18.1254 6.22222 17.9Z" fill="white"/>
</svg>
