<svg width="13" height="11" viewBox="0 0 13 11" fill="none" xmlns="http://www.w3.org/2000/svg">
<path d="M5.5625 1.75H11.6562M5.5625 1.75C5.5625 1.99864 5.46373 2.2371 5.28791 2.41291C5.1121 2.58873 4.87364 2.6875 4.625 2.6875C4.37636 2.6875 4.1379 2.58873 3.96209 2.41291C3.78627 2.2371 3.6875 1.99864 3.6875 1.75M5.5625 1.75C5.5625 1.50136 5.46373 1.2629 5.28791 1.08709C5.1121 0.911272 4.87364 0.8125 4.625 0.8125C4.37636 0.8125 4.1379 0.911272 3.96209 1.08709C3.78627 1.2629 3.6875 1.50136 3.6875 1.75M3.6875 1.75H1.34375M5.5625 9.25H11.6562M5.5625 9.25C5.5625 9.49864 5.46373 9.7371 5.28791 9.91291C5.1121 10.0887 4.87364 10.1875 4.625 10.1875C4.37636 10.1875 4.1379 10.0887 3.96209 9.91291C3.78627 9.7371 3.6875 9.49864 3.6875 9.25M5.5625 9.25C5.5625 9.00136 5.46373 8.7629 5.28791 8.58709C5.1121 8.41127 4.87364 8.3125 4.625 8.3125C4.37636 8.3125 4.1379 8.41127 3.96209 8.58709C3.78627 8.7629 3.6875 9.00136 3.6875 9.25M3.6875 9.25H1.34375M9.3125 5.5H11.6562M9.3125 5.5C9.3125 5.74864 9.21373 5.9871 9.03791 6.16291C8.8621 6.33873 8.62364 6.4375 8.375 6.4375C8.12636 6.4375 7.8879 6.33873 7.71209 6.16291C7.53627 5.9871 7.4375 5.74864 7.4375 5.5M9.3125 5.5C9.3125 5.25136 9.21373 5.0129 9.03791 4.83709C8.8621 4.66127 8.62364 4.5625 8.375 4.5625C8.12636 4.5625 7.8879 4.66127 7.71209 4.83709C7.53627 5.0129 7.4375 5.25136 7.4375 5.5M7.4375 5.5H1.34375" stroke="white" stroke-width="1.5" stroke-linecap="round" stroke-linejoin="round"/>
</svg>
